<?xml version="1.0" standalone="no"?><!DOCTYPE svg PUBLIC "-//W3C//DTD SVG 1.1//EN" "http://www.w3.org/Graphics/SVG/1.1/DTD/svg11.dtd"><svg class="icon" width="200px" height="200.00px" viewBox="0 0 1024 1024" version="1.1" xmlns="http://www.w3.org/2000/svg"><path d="M182.727111 657.976889c6.257778-10.069333-4.892444-43.804444-4.892444-43.804445-45.056-39.253333-34.304 29.184-34.304 29.184 31.573333 49.777778 39.196444 14.620444 39.196444 14.620445z m181.248-29.240889s-50.517333 1.592889-39.253333 34.133333c0 0 76.117333 17.692444 83.342222-14.620444 0 0 5.233778-30.378667-44.088889-19.512889z m-200.817778-150.983111c-41.813333-44.202667 14.677333-58.424889 14.677334-58.424889 21.617778-59.847111-29.411556-53.589333-29.411556-53.589333-48.753778-8.704-19.569778 24.348444-19.569778 24.348444-8.419556 33.393778-34.304 43.804444-34.304 43.804445-67.584-14.449778-14.677333-63.260444-14.677333-63.260445-2.56-33.223111 48.924444-34.133333 48.924444-34.133333 17.408-2.161778 14.734222-19.456 14.734223-19.456-8.533333-37.774222-63.715556-19.512889-63.715556-19.512889C50.631111 316.984889 21.048889 390.087111 21.048889 390.087111c-19.342222 36.693333 29.411556 58.424889 29.411555 58.424889 17.294222 29.468444-29.411556 77.937778-29.411555 77.937778 2.56 80.782222 48.981333 63.317333 48.981333 63.317333 4.551111 14.051556 63.715556 4.892444 63.715556 4.892445-1.365333-11.548444 44.088889-38.968889 44.088889-38.968889 8.533333-55.637333-14.734222-77.937778-14.734223-77.937778z m-44.145777 82.830222s-72.817778 1.194667-58.766223-29.240889c0 0 16.952889-41.528889 24.462223-38.968889 0 0 33.678222-39.025778 58.823111 9.728 0 0 10.126222 41.870222-24.462223 58.481778z m-117.532445 121.742222c-10.012444 62.748444 34.304 38.968889 34.304 38.968889-2.730667-29.866667 19.569778-43.804444 19.569778-43.804444v-63.374222c-40.391111-13.368889-53.873778 68.209778-53.873778 68.209777z m83.285333-48.696889c-14.961778 144.952889 34.247111 68.152889 34.247112 68.152889 8.704-122.88-34.247111-68.152889-34.247112-68.152889z m382.065778-228.920888c20.366222-36.636444-24.462222-68.209778-24.462222-68.209778l-29.411556-4.835556c-32.938667-17.521778-93.070222-4.892444-93.070222-4.892444-35.271111 11.150222-97.962667 4.892444-97.962666 4.892444-44.885333 54.101333-4.949333 107.121778-4.949334 107.121778v102.286222c-7.509333 93.696-44.032 141.255111-44.032 141.255111 4.039111 58.936889 39.139556 24.348444 39.139556 24.348445 24.689778-13.937778 34.304-126.634667 34.304-126.634667l24.462222 9.728v58.481778c12.856889 23.552 37.205333 13.653333 39.253333 9.671111 1.991111-3.925333 0-14.563556 0-14.563556-15.587556-6.542222-4.949333-53.589333-4.949333-53.589333-0.739556-25.144889 102.912-14.620444 102.912-14.620444 21.902222-53.703111-53.930667-38.912-53.930667-38.912-16.497778-1.820444-9.784889-34.133333-9.784889-34.133334 35.271111-18.204444 76.913778-1.649778 78.392889 9.784889 1.479111 11.377778 0 160.711111 0 160.711111 13.937778 92.785778 48.981333 34.133333 48.981334 34.133334 8.135111-24.348444-14.677333-97.450667-14.677334-97.450667-14.051556-54.784 9.784889-204.572444 9.784889-204.572444z m-151.893333 141.255111c-49.493333-8.931556-63.658667 4.835556-63.658667 4.835555-5.12-73.102222 63.715556-43.804444 63.715556-43.804444v38.968889zM422.798222 463.075556l-44.088889-4.835556 4.892445-24.405333c17.408-10.808889 14.677333-48.696889 14.677333-48.696889-48.924444-28.444444-44.088889 38.968889-44.088889 38.968889-1.991111 54.613333-39.139556 43.804444-39.139555 43.804444h-53.930667C213.105778 434.574222 251.278222 375.466667 251.278222 375.466667l48.981334-9.728c2.275556-18.659556 73.500444-9.728 73.500444-9.728 44.430222 2.673778 48.924444 34.076444 48.924444 34.076444v73.045333z m391.850667 141.255111s-94.378667 57.514667-117.532445 82.830222c0 0-71.111111 20.48-93.070222 24.348444 0 0-62.008889 64.284444 58.766222 34.076445 0 0 65.365333-27.704889 93.070223-58.424889 0 0 81.976889-62.008889 112.64-87.722667 0 0 5.461333-54.044444-53.873778 4.892445z m161.678222 0c1.934222-71.566222-88.177778-107.121778-88.177778-107.121778-7.793778-0.341333-68.551111-4.892444-68.551111-4.892445-45.966222-5.12-29.411556 34.133333-29.411555 34.133334-129.422222 106.951111-200.817778 107.121778-200.817778 107.121778-61.553778 37.888 9.784889 43.804444 9.784889 43.804444 61.44 4.152889 230.229333-141.255111 230.229333-141.255111 16.725333-8.704 39.196444 0 39.196445 0-0.739556 20.764444 9.784889 29.240889 9.784888 29.240889 96.711111-16.042667 44.088889 87.665778 44.088889 87.665778-30.378667 54.727111-102.855111 48.696889-102.855111 48.696888-44.316444-27.648-39.253333 0-39.253333 0 16.327111 111.445333 137.216 19.512889 137.216 19.512889 77.937778-58.993778 58.766222-116.906667 58.766222-116.906666z m-156.728889-199.68c55.352889-12.174222 14.677333-34.133333 14.677334-34.133334-18.204444-12.174222-127.374222 0-127.374223 0-27.875556 21.959111 0 34.133333 0 34.133334h112.64zM285.582222 390.087111c-18.602667 19.399111 4.892444 53.589333 4.892445 53.589333 17.294222 19.456 29.411556 4.835556 29.411555 4.835556v-34.076444c-10.808889-36.465778-34.304-24.348444-34.304-24.348445z m298.780445 194.844445c128-6.257778 181.248-97.450667 181.248-97.450667l122.481777-4.835556c41.301333-15.246222 39.196444-38.968889 39.196445-38.968889 10.524444-13.937778 0-63.317333 0-63.317333-4.209778-66.275556-34.304-77.937778-34.304-77.937778-23.722667-5.12-34.304-9.728-34.304-9.728-19.342222-7.566222-73.443556 0-73.443556 0-28.444444-18.545778-93.070222 0-93.070222 0-53.361778 18.090667-9.784889 43.804444-9.784889 43.804445 200.192-44.202667 200.817778 24.348444 200.817778 24.348444 19.854222 78.961778-19.626667 77.937778-19.626667 77.937778-53.134222-2.275556-44.088889 9.728-44.088889 9.728-18.033778 1.934222-24.462222-4.835556-24.462222-4.835556-35.157333-12.117333-68.608 9.728-68.608 9.728h-34.247111c-18.375111-2.332444-24.462222-29.240889-24.462222-29.240888v-77.937778c-25.656889-40.789333-44.145778 4.892444-44.145778 4.892444V453.404444c23.950222 56.718222 88.177778 34.133333 88.177778 34.133334-11.662222 29.866667-83.285333 53.532444-83.285333 53.532444-19.342222 2.958222-48.924444 0-48.924445 0-37.148444 26.737778 4.835556 43.804444 4.835556 43.804445z" fill="#ffffff" /></svg>