<?xml version="1.0" standalone="no"?><!DOCTYPE svg PUBLIC "-//W3C//DTD SVG 1.1//EN" "http://www.w3.org/Graphics/SVG/1.1/DTD/svg11.dtd"><svg class="icon" width="200px" height="200.00px" viewBox="0 0 1024 1024" version="1.1" xmlns="http://www.w3.org/2000/svg"><path d="M964.266667 528.622933c0 247.432533-200.533333 448.0512-447.965867 448.0512C268.868267 976.674133 68.266667 776.055467 68.266667 528.622933S268.868267 80.674133 516.3008 80.674133c23.927467 0 47.428267 1.8432 70.4 5.5296-26.6752 12.049067-60.347733 23.04-101.034667 28.962134-147.1488 21.1968-137.096533 109.226667-132.369066 123.630933 4.5056 13.960533 241.885867 322.474667 241.885866 322.474667s-240.042667-35.515733-275.797333 148.087466c-33.450667 171.946667 146.0224 189.7472 183.108267 189.7472 56.4224 0 207.991467-33.006933 214.698666-175.104 3.413333-70.997333-70.314667-164.642133-70.314666-164.642133L457.386667 256.238933s227.84 47.479467 220.6208-145.442133C845.482667 175.581867 964.266667 338.210133 964.266667 528.622933z" fill="#ffffff" /><path d="M678.024533 110.7968a439.057067 439.057067 0 0 0-91.306666-24.576C639.778133 62.190933 665.565867 34.133333 665.565867 34.133333c7.748267 29.013333 11.741867 54.442667 12.475733 76.663467z" fill="#ffffff" /></svg>