<?xml version="1.0" standalone="no"?><!DOCTYPE svg PUBLIC "-//W3C//DTD SVG 1.1//EN" "http://www.w3.org/Graphics/SVG/1.1/DTD/svg11.dtd"><svg class="icon" width="200px" height="199.61px" viewBox="0 0 1026 1024" version="1.1" xmlns="http://www.w3.org/2000/svg"><path d="M906.70592 507.33568c-44.40576 5.32992-355.24096-46.1824-490.22976-35.52256-39.07584 8.8832-229.13024 62.16704-333.9264 163.40992C66.56 621.00992 39.92064 587.264 18.60608 564.1728c39.07584-21.31456 465.36704-383.66208 980.46464-284.19072-5.32992 7.10656-261.09952-31.96928-461.81376 85.25824 21.31456 5.32992 271.75936 23.0912 390.76352 21.31456 28.42112-3.55328 67.49696-7.10656 85.25824-56.83712 5.32992 30.19264-26.64448 134.9888-106.5728 177.61792zM246.00064 344.064c68.05504-64.5632 142.0544-120.92416 142.0544-120.92416L317.0048 230.2464S254.83776 153.87136 245.95456 137.8816C340.096 65.05984 569.0368 1.3056 544.3584 17.1008c-44.40576 28.42112-85.25824 63.94368-120.7808 92.3648 55.06048-17.76128 177.61792 7.10656 177.61792 7.10656s40.85248 60.3904 63.94368 99.46624C441.33888 239.12448 110.96576 486.02112 110.96576 486.02112S175.54944 410.90048 246.00064 344.064zM594.09408 1018.88c-17.76128-3.55328-225.57696-90.58816-319.7184-305.50528 24.86784-17.76128 133.21728-74.5984 177.61792-85.25824-30.19776-12.43136-97.6896-47.95904-333.9264 0-33.79712 6.8608 246.89152-152.7552 554.17344-49.73568-8.8832 10.65472-191.83104 94.13632-269.98272 213.1456 10.65472 12.43136 143.872 87.03488 277.08928 120.7808-17.75616 24.86784-67.49184 87.03488-85.25312 106.5728z" fill="#ffffff" /></svg>